<?xml version="1.0" standalone="no"?>
<!DOCTYPE svg PUBLIC "-//W3C//DTD SVG 20010904//EN"
 "http://www.w3.org/TR/2001/REC-SVG-20010904/DTD/svg10.dtd">
<svg version="1.0" xmlns="http://www.w3.org/2000/svg"
 width="511.000000pt" height="512.000000pt" viewBox="0 0 511.000000 512.000000"
 preserveAspectRatio="xMidYMid meet">

<g transform="translate(0.000000,512.000000) scale(0.100000,-0.100000)"
fill="#000000" stroke="none">
<path d="M0 2560 l0 -2560 2555 0 2555 0 0 2560 0 2560 -2555 0 -2555 0 0
-2560z m2780 151 c14 -10 31 -29 37 -42 11 -20 10 -25 -4 -28 -9 -2 -25 8 -35
23 -34 46 -118 44 -131 -3 -8 -33 19 -58 93 -86 79 -30 100 -53 100 -107 0
-58 -34 -90 -101 -95 -64 -5 -94 9 -127 57 -21 32 -22 35 -5 41 13 5 26 -3 46
-27 24 -29 35 -34 72 -34 37 0 47 5 62 26 27 41 3 71 -82 105 -98 40 -125 81
-94 142 16 29 13 27 56 42 43 15 77 11 113 -14z m832 -133 c3 -158 4 -163 26
-173 12 -5 22 -15 22 -22 0 -16 -44 -17 -71 -3 -18 10 -19 23 -19 185 0 168 1
175 20 175 18 0 20 -8 22 -162z m-2537 18 c22 -74 43 -132 46 -130 3 2 23 62
45 134 l38 130 38 0 38 0 -2 -177 c-3 -175 -3 -178 -25 -181 -22 -3 -22 -2
-25 149 l-3 151 -44 -151 c-59 -199 -64 -199 -122 -1 l-44 150 -5 -148 c-5
-139 -6 -147 -25 -147 -19 0 -20 8 -23 178 l-2 177 37 0 38 0 40 -134z m1875
84 c0 -33 3 -40 20 -40 13 0 20 -7 20 -20 0 -13 -7 -20 -20 -20 -19 0 -20 -7
-20 -94 0 -86 2 -95 20 -101 30 -10 25 -35 -7 -35 -49 0 -52 8 -54 123 -1 98
-3 107 -20 107 -12 0 -19 7 -19 20 0 13 7 20 20 20 17 0 20 7 20 40 0 33 3 40
20 40 17 0 20 -7 20 -40z m-1438 -69 c28 -25 32 -35 36 -92 5 -81 -22 -129
-81 -143 -82 -21 -137 35 -137 136 0 55 3 63 34 94 46 46 101 48 148 5z m134
14 c5 -13 8 -13 27 0 31 21 57 19 57 -5 0 -11 -6 -20 -14 -20 -8 0 -27 -10
-42 -23 -25 -22 -27 -28 -25 -97 2 -88 -4 -110 -30 -110 -18 0 -19 8 -19 135
0 129 1 135 20 135 11 0 23 -7 26 -15z m257 4 c16 -9 22 -9 25 0 2 6 10 11 18
11 11 0 14 -29 14 -160 0 -158 0 -161 -25 -186 -22 -22 -32 -25 -88 -22 -54 3
-62 6 -65 24 -3 20 -1 21 38 11 59 -16 94 4 98 57 3 38 3 38 -20 22 -37 -26
-76 -20 -114 18 -34 34 -40 60 -34 136 6 76 87 123 153 89z m272 -1 c30 -14
36 -33 40 -131 2 -39 6 -84 10 -99 6 -22 4 -28 -8 -28 -9 0 -22 6 -29 13 -10
11 -16 11 -38 0 -40 -21 -88 -16 -115 12 -57 56 -9 130 98 149 32 6 38 11 35
29 -2 13 -14 25 -30 31 -23 8 -34 6 -58 -12 -21 -16 -35 -20 -46 -14 -13 7
-11 13 16 35 35 30 81 35 125 15z m151 -3 c5 -13 8 -13 27 0 31 21 83 19 107
-5 18 -18 20 -33 20 -135 0 -108 -1 -115 -20 -115 -19 0 -20 7 -20 101 0 137
-15 161 -81 122 -28 -17 -28 -19 -31 -117 -3 -96 -4 -101 -25 -104 -23 -3 -23
-3 -23 132 0 130 1 136 20 136 11 0 23 -7 26 -15z m877 -5 c24 -19 26 -28 30
-113 2 -50 7 -102 11 -114 10 -27 -13 -32 -36 -9 -12 12 -18 12 -39 0 -39 -22
-87 -17 -114 11 -57 56 -9 130 98 149 32 6 38 11 35 29 -2 13 -14 25 -30 31
-23 8 -33 6 -57 -12 -31 -23 -64 -20 -54 4 16 43 113 57 156 24z m140 2 c-4
-16 7 -15 31 3 21 16 73 20 92 7 26 -17 34 -56 34 -156 0 -99 -1 -106 -20
-106 -19 0 -20 7 -20 104 0 82 -3 108 -16 120 -19 20 -28 20 -63 1 -38 -19
-41 -31 -41 -136 0 -82 -1 -89 -20 -89 -19 0 -20 7 -20 136 0 135 0 135 23
132 12 -2 21 -9 20 -16z m528 -11 c23 -23 29 -39 29 -70 l0 -41 -85 0 c-83 0
-85 -1 -85 -24 0 -61 83 -95 120 -48 15 18 20 19 35 8 16 -11 15 -14 -15 -39
-37 -31 -85 -35 -131 -11 -53 27 -75 117 -45 188 19 45 52 66 104 66 35 0 49
-6 73 -29z m134 -70 c17 -52 34 -91 37 -85 3 5 18 48 32 97 22 71 30 87 46 87
11 0 20 -2 20 -5 0 -2 -23 -74 -50 -158 -58 -177 -76 -207 -126 -207 -43 0
-46 25 -4 33 19 4 35 17 45 37 15 29 14 35 -30 161 -25 72 -45 133 -45 135 0
3 10 4 22 2 17 -2 27 -20 53 -97z"/>
<path d="M1412 2603 c-20 -8 -42 -59 -42 -97 0 -48 17 -81 48 -96 21 -9 30 -8
51 8 80 59 30 220 -57 185z"/>
<path d="M1819 2591 c-21 -17 -24 -28 -24 -85 0 -68 10 -88 51 -100 13 -4 30
1 47 15 25 19 27 27 27 89 0 60 -3 71 -22 84 -30 21 -51 20 -79 -3z"/>
<path d="M2093 2495 c-27 -11 -33 -20 -33 -44 0 -42 28 -56 75 -37 32 14 35
19 35 55 0 36 -3 41 -22 41 -13 -1 -38 -7 -55 -15z"/>
<path d="M3113 2495 c-27 -11 -33 -20 -33 -44 0 -34 27 -55 57 -44 35 12 53
36 53 70 0 28 -4 33 -22 33 -13 -1 -38 -7 -55 -15z"/>
<path d="M3750 2590 c-11 -11 -20 -29 -20 -40 0 -18 7 -20 65 -20 58 0 65 2
65 20 0 28 -35 60 -65 60 -14 0 -34 -9 -45 -20z"/>
</g>
</svg>
