<?xml version="1.0" standalone="no"?>
<!DOCTYPE svg PUBLIC "-//W3C//DTD SVG 20010904//EN"
 "http://www.w3.org/TR/2001/REC-SVG-20010904/DTD/svg10.dtd">
<svg version="1.0" xmlns="http://www.w3.org/2000/svg"
 width="1207.000000pt" height="1208.000000pt" viewBox="0 0 1207.000000 1208.000000"
 preserveAspectRatio="xMidYMid meet">

<g transform="translate(0.000000,1208.000000) scale(0.100000,-0.100000)"
fill="#000000" stroke="none">
<path d="M0 6040 l0 -6040 6035 0 6035 0 0 6040 0 6040 -6035 0 -6035 0 0
-6040z m5670 580 c0 -5 -5 -10 -11 -10 -5 0 -7 5 -4 10 3 6 8 10 11 10 2 0 4
-4 4 -10z m2860 -539 l0 -380 22 -15 c12 -9 37 -16 55 -16 31 0 33 -2 33 -35
0 -41 -22 -50 -102 -43 -42 4 -57 11 -80 37 l-28 31 0 400 0 400 50 0 50 0 0
-379z m-1995 342 c49 -26 96 -74 124 -128 24 -46 27 -65 7 -65 -7 0 -27 -3
-43 -6 -28 -5 -32 -2 -51 38 -39 78 -129 117 -224 96 -64 -13 -98 -53 -98
-115 0 -67 38 -99 170 -148 143 -51 211 -87 248 -129 103 -117 37 -314 -120
-361 -116 -34 -244 -12 -321 55 -57 51 -116 148 -96 160 24 15 83 22 87 11 13
-40 73 -108 112 -129 38 -20 56 -23 117 -20 83 4 117 23 147 82 26 52 15 101
-33 146 -27 25 -74 49 -163 83 -140 53 -177 75 -221 129 -77 96 -30 244 98
305 43 21 61 24 135 20 61 -2 96 -9 125 -24z m-3994 -303 c52 -173 98 -321
100 -329 3 -7 50 135 105 315 l100 329 82 3 82 3 0 -421 0 -420 -50 0 -50 0
-2 367 -3 368 -110 -368 -110 -367 -40 0 -40 0 -112 373 -112 372 0 -372 -1
-373 -50 0 -50 0 0 420 0 421 82 -3 83 -3 96 -315z m4427 203 l3 -103 49 0 50
0 0 -40 0 -40 -50 0 -50 0 0 -225 c0 -212 1 -225 19 -235 11 -5 33 -10 50 -10
29 0 31 -3 31 -34 0 -39 -11 -46 -79 -46 -56 0 -111 32 -122 70 -4 14 -7 127
-8 253 l-1 227 -45 0 -45 0 0 40 0 40 45 0 45 0 0 98 c0 54 3 102 7 106 4 4
28 6 53 4 l45 -3 3 -102z m-3450 -115 c51 -24 87 -65 121 -138 22 -47 26 -69
26 -150 0 -127 -21 -187 -89 -255 -32 -32 -66 -55 -92 -63 -127 -37 -251 14
-309 128 -84 166 -35 403 98 472 81 41 163 43 245 6z m5550 10 c48 -14 102
-66 125 -117 12 -27 21 -77 25 -128 l5 -83 -213 0 -213 0 6 -45 c24 -169 190
-231 300 -112 l37 41 35 -17 c19 -9 35 -21 35 -25 0 -25 -63 -92 -107 -113
-154 -75 -338 -1 -388 156 -24 77 -24 201 0 278 19 62 71 129 117 153 61 32
156 37 236 12z m-4980 -35 c-3 -43 -6 -48 -28 -51 -74 -8 -122 -42 -151 -107
-16 -34 -19 -67 -19 -232 l0 -193 -55 0 -55 0 0 310 0 310 55 0 55 0 0 -47 0
-47 38 38 c43 45 83 65 130 66 l33 0 -3 -47z m415 14 c20 -15 38 -27 40 -27 3
0 8 11 11 25 6 22 12 25 47 25 l40 0 -3 -357 -3 -358 -28 -47 c-43 -74 -99
-101 -212 -105 -54 -2 -110 2 -140 10 l-50 13 -3 47 -3 46 43 -15 c75 -27 168
-30 219 -7 59 26 79 67 79 159 l0 68 -27 -26 c-49 -45 -91 -61 -149 -55 -99
10 -164 60 -210 162 -24 51 -28 73 -28 150 0 50 5 109 12 132 21 71 71 134
132 166 48 25 63 28 126 25 59 -3 77 -8 107 -31z m630 9 c21 -10 50 -35 65
-54 l27 -35 3 -214 c3 -199 4 -214 23 -226 12 -8 19 -23 19 -44 0 -32 -2 -33
-39 -33 -42 0 -91 31 -91 58 0 12 -6 10 -27 -11 -90 -85 -266 -74 -328 22 -52
80 -41 169 30 237 51 49 121 78 233 95 l82 12 0 37 c0 75 -58 110 -156 95 -35
-5 -54 -16 -84 -46 l-38 -40 -36 18 c-20 9 -36 21 -36 27 0 18 96 102 130 113
52 18 178 11 223 -11z m642 1 c26 -14 48 -37 63 -67 21 -42 22 -55 22 -292 l0
-248 -49 0 -50 0 -3 256 c-3 255 -3 256 -27 275 -32 26 -87 24 -148 -6 -88
-44 -85 -33 -86 -292 l-2 -228 -52 -3 -53 -3 0 310 0 311 56 0 55 0 -5 -30
c-6 -38 6 -45 30 -18 52 58 176 76 249 35z m1750 4 c53 -24 91 -67 104 -116 6
-22 11 -124 11 -226 0 -157 2 -188 15 -193 9 -3 15 -19 15 -41 0 -34 -1 -35
-38 -35 -41 0 -82 23 -82 46 0 19 -6 18 -43 -10 -44 -32 -90 -46 -156 -46 -68
0 -114 21 -154 71 -53 67 -49 165 10 230 57 63 135 96 276 115 56 8 64 20 48
75 -27 90 -176 95 -244 8 l-26 -33 -35 19 c-20 11 -36 24 -36 30 1 11 34 51
67 79 56 47 194 61 268 27z m662 -7 c39 -29 63 -65 73 -110 5 -21 10 -142 10
-267 l0 -228 -52 3 -53 3 -3 252 -2 252 -27 20 c-47 38 -128 21 -198 -40 l-35
-31 0 -229 0 -229 -50 0 -50 0 0 310 0 310 50 0 50 0 0 -37 c0 -34 1 -35 18
-20 9 8 37 27 62 42 39 22 54 25 112 23 48 -3 75 -9 95 -24z m1198 4 c72 -213
150 -435 155 -441 3 -4 37 96 74 223 l69 230 48 0 c51 0 55 -4 39 -42 -5 -13
-48 -144 -95 -293 -114 -359 -122 -381 -161 -442 -44 -69 -94 -95 -172 -91
l-57 3 -3 40 -3 41 39 -4 c59 -6 106 19 137 71 47 81 46 85 -64 397 -55 157
-103 293 -106 303 -6 15 -1 17 44 17 32 0 53 -5 56 -12z"/>
<path d="M3324 6131 c-18 -11 -42 -40 -55 -68 -21 -41 -24 -62 -24 -153 0 -89
4 -112 22 -147 40 -75 107 -107 177 -83 82 27 123 121 114 264 -6 96 -33 157
-81 186 -42 26 -112 26 -153 1z"/>
<path d="M8883 6136 c-35 -16 -66 -68 -77 -128 l-7 -38 162 0 161 0 -7 48 c-8
56 -15 69 -49 102 -21 19 -39 25 -89 27 -39 2 -74 -2 -94 -11z"/>
<path d="M4320 6132 c-72 -38 -108 -181 -80 -315 30 -147 169 -192 264 -87
l37 41 -3 156 -3 156 -37 30 c-49 39 -125 48 -178 19z"/>
<path d="M5055 5919 c-89 -17 -144 -39 -170 -70 -50 -60 -21 -161 50 -175 66
-12 166 33 188 85 15 36 10 171 -6 170 -7 -1 -34 -5 -62 -10z"/>
<path d="M7444 5915 c-126 -23 -174 -60 -174 -138 0 -94 77 -133 178 -87 23
10 53 31 67 46 23 24 25 35 25 110 0 61 -3 84 -12 83 -7 0 -45 -7 -84 -14z"/>
</g>
</svg>
